# Blender v2.92.0 OBJ File: ''
# www.blender.org
mtllib Car.mtl
o Car
v -3.750000 0.433999 8.000000
v -3.750000 0.308999 8.000000
v -3.750000 0.558999 8.000000
v -5.250000 0.433999 8.000000
v -5.250000 0.308999 8.000000
v -5.250000 0.558999 8.000000
v -5.250000 1.308999 8.000000
v -3.750000 1.308999 8.000000
v -5.250000 0.525588 7.625000
v -5.250000 0.400587 7.625000
v -5.250000 0.612017 7.250000
v -5.250000 0.606249 7.250000
v -5.250000 0.558999 7.625000
v -5.250000 0.625959 7.250000
v -5.250000 0.525588 6.875000
v -5.250000 0.400588 6.875000
v -5.250000 0.433999 6.500000
v -5.250000 0.308999 6.500000
v -5.250000 0.558999 6.875000
v -5.250000 0.558999 6.500000
v -5.250000 0.433999 6.125000
v -5.250000 0.408900 6.125000
v -5.250000 0.639990 5.750000
v -5.250000 0.613863 5.749999
v -5.250000 0.558999 6.125000
v -5.250000 0.662498 5.750000
v -5.250000 0.433999 5.375000
v -5.250000 0.408900 5.375000
v -5.250000 0.433999 5.000000
v -5.250000 0.308999 5.000000
v -5.250000 0.558999 5.375000
v -5.250000 0.558999 5.000000
v -5.250000 1.308999 5.375000
v -5.250000 1.308999 5.000000
v -5.250000 1.808999 5.750000
v -5.250000 1.808999 6.125000
v -5.250000 1.808999 6.500000
v -5.250000 1.808999 6.875000
v -5.250000 1.808999 7.250000
v -5.250000 1.308999 7.625000
v -3.750000 0.433999 5.000000
v -3.750000 0.308999 5.000000
v -3.750000 0.558999 5.000000
v -3.750000 1.308999 5.000000
v -3.750000 0.408900 6.125000
v -3.750000 0.433999 6.125000
v -3.750000 0.433999 6.500000
v -3.750000 0.308999 6.500000
v -3.750000 0.558999 6.125000
v -3.750000 0.558999 6.500000
v -3.750000 0.639990 5.750000
v -3.750000 0.662498 5.750000
v -3.750000 0.613863 5.749999
v -3.750000 0.558999 5.375000
v -3.750000 0.408900 5.375000
v -3.750000 0.433999 5.375000
v -3.750000 0.400587 7.625000
v -3.750000 0.525588 7.625000
v -3.750000 0.558999 7.625000
v -3.750000 0.610276 7.250000
v -3.750000 0.625959 7.250000
v -3.750000 0.606249 7.250000
v -3.750000 0.558999 6.875000
v -3.750000 0.400588 6.875000
v -3.750000 0.525588 6.875000
v -3.750000 1.308999 7.625000
v -3.750000 1.808999 7.250000
v -3.750000 1.808999 6.875000
v -3.750000 1.808999 6.500000
v -3.750000 1.808999 6.125000
v -3.750000 1.808999 5.750000
v -3.750000 1.308999 5.375000
vt 0.500000 0.250000
vt -0.500000 0.250000
vt -0.500000 0.125000
vt 0.500000 0.125000
vt -0.250000 0.250000
vt -0.250000 1.000000
vt -0.500000 1.500000
vt -0.500000 0.353499
vt 0.500000 2.000000
vt -0.500000 2.000000
vt -0.500000 1.750000
vt 0.500000 1.750000
vt -0.500000 0.500000
vt 0.500000 0.500000
vt 0.500000 0.750000
vt -0.500000 0.750000
vt 2.000000 0.125000
vt 1.750000 0.216589
vt 1.750000 0.091589
vt 2.000000 -0.000000
vt 1.500000 0.303018
vt 1.500000 0.297250
vt 1.750000 0.250000
vt 1.500000 0.316960
vt 2.000000 0.250000
vt 1.250000 0.216589
vt 1.250000 0.091589
vt 1.000000 0.125000
vt 1.000000 -0.000000
vt 1.250000 0.250000
vt 1.000000 0.250000
vt 1.750000 1.000000
vt 1.500000 1.500000
vt 0.500000 0.250000
vt 0.500000 1.000000
vt -0.500000 1.000000
vt -0.500000 0.250000
vt 1.000000 1.500000
vt 0.750000 1.500000
vt 0.750000 0.250000
vt -1.750000 0.250000
vt -1.750000 1.000000
vt -2.000000 1.000000
vt -2.000000 0.250000
vt 0.750000 0.125000
vt 0.750000 0.099901
vt 0.500000 0.330991
vt 0.499999 0.304864
vt 0.500000 0.353499
vt 0.250000 0.125000
vt 0.250000 0.099901
vt -0.000000 0.125000
vt 0.000000 0.000000
vt 0.250000 0.250000
vt -0.000000 0.250000
vt -1.000000 0.250000
vt -1.000000 1.500000
vt -1.250000 1.500000
vt -1.250000 0.250000
vt 0.500000 1.500000
vt 0.000000 1.000000
vt 0.000000 0.250000
vt -0.750000 0.250000
vt -0.750000 1.500000
vt 1.250000 1.500000
vt -0.500000 1.500000
vt 0.500000 1.500000
vt -0.750000 0.099901
vt -0.750000 0.125000
vt -1.000000 0.125000
vt -1.000000 0.000000
vt -0.500000 0.330991
vt -0.500000 0.304864
vt -1.500000 0.316961
vt -1.500000 1.500000
vt 2.000000 1.000000
vt -0.250000 0.099901
vt -0.250000 0.125000
vt 0.000000 0.125000
vt 0.000000 0.000000
vt -1.750000 0.091589
vt -1.750000 0.216589
vt -2.000000 0.125000
vt -2.000000 0.000000
vt -1.500000 0.301277
vt -1.500000 0.297251
vt -0.500000 1.000000
vt 0.500000 1.000000
vt 0.500000 1.000000
vt -0.500000 1.000000
vt -0.500000 0.750000
vt 0.500000 0.750000
vt 0.250000 1.000000
vt -0.000000 1.000000
vt -1.250000 0.091589
vt -1.250000 0.216589
vt 0.500000 1.000000
vt -0.500000 1.000000
vt -0.500000 0.500000
vt -0.499990 0.249978
vt 0.500009 0.249978
vt 0.500000 0.500000
vt 0.500000 1.250000
vt -0.500000 1.250000
vt 0.500009 1.749980
vt -0.499991 1.749980
vt -0.499972 1.499934
vt 0.500028 1.499934
vt 0.500000 0.000000
vt 0.500000 0.125000
vt -0.500000 0.125000
vt -0.500000 0.000000
vt 0.500000 2.000000
vt -0.500000 2.000000
vt 0.500000 0.250000
vt -0.500000 0.250000
vt -0.500000 0.000000
vt 0.500000 0.000000
vt -0.500000 0.000000
vt 0.500000 0.000000
vt -0.500000 0.000000
vt 0.500000 0.000000
vt -0.499991 1.249980
vt 0.500009 1.249980
vn 0.0000 0.0000 1.0000
vn 1.0000 0.0000 0.0000
vn 0.0000 1.0000 0.0000
vn -1.0000 0.0000 0.0000
vn 0.0000 0.0000 -1.0000
vn -0.2236 0.3903 0.8931
vn 0.0000 0.3162 0.9487
vn -0.1952 -0.8785 -0.4360
vn 0.0000 -0.8577 -0.5141
vn 0.0000 -0.6309 0.7759
vn 0.2675 -0.6840 0.6786
vn -0.2481 -0.6836 -0.6864
vn 0.0089 -0.6276 -0.7785
vn -0.0095 -0.6289 -0.7774
vn 0.1455 -0.6008 -0.7860
vn -0.1838 -0.8944 -0.4077
vn 0.0000 -0.8764 -0.4816
vn 0.1952 -0.8785 0.4360
vn 0.0000 -0.8577 0.5141
vn 0.2472 -0.6834 0.6869
vn -0.0250 -0.6249 0.7803
vn -0.0000 -0.6381 0.7700
vn -0.0519 -0.6169 0.7853
vn -0.2674 -0.6840 -0.6787
vn 0.0000 -0.6309 -0.7759
vn -0.2675 -0.6840 -0.6786
vn 0.0000 -0.8764 0.4816
vn 0.1838 -0.8945 0.4076
vn 0.2236 0.3903 -0.8931
vn 0.0000 0.3162 -0.9487
usemtl ProBuilderDefault
s 1
f 3/1/1 6/2/1 4/3/1 1/4/1
f 54/5/2 72/6/2 71/7/2 52/8/2
f 7/9/3 8/10/3 66/11/3 40/12/3
f 71/13/3 35/14/3 36/15/3 70/16/3
f 4/17/4 9/18/4 10/19/4 5/20/4
f 9/18/4 11/21/4 12/22/4 10/19/4
f 13/23/4 14/24/4 11/21/4 9/18/4
f 6/25/4 13/23/4 9/18/4 4/17/4
f 11/21/4 15/26/4 16/27/4 12/22/4
f 15/26/4 17/28/4 18/29/4 16/27/4
f 19/30/4 20/31/4 17/28/4 15/26/4
f 14/24/4 19/30/4 15/26/4 11/21/4
f 40/32/4 39/33/4 14/24/4 13/23/4
f 32/34/5 34/35/5 44/36/5 43/37/5
f 37/38/4 36/39/4 25/40/4 20/31/4
f 59/41/2 66/42/2 8/43/2 3/44/2
f 17/28/4 21/45/4 22/46/4 18/29/4
f 21/45/4 23/47/4 24/48/4 22/46/4
f 25/40/4 26/49/4 23/47/4 21/45/4
f 20/31/4 25/40/4 21/45/4 17/28/4
f 23/47/4 27/50/4 28/51/4 24/48/4
f 27/50/4 29/52/4 30/53/4 28/51/4
f 31/54/4 32/55/4 29/52/4 27/50/4
f 26/49/4 31/54/4 27/50/4 23/47/4
f 50/56/2 69/57/2 68/58/2 63/59/2
f 35/60/4 26/49/4 25/40/4 36/39/4
f 44/61/2 72/6/2 54/5/2 43/62/2
f 49/63/2 70/64/2 69/57/2 50/56/2
f 19/30/4 38/65/4 37/38/4 20/31/4
f 67/66/6 39/67/7 40/12/7 66/11/7
f 45/68/2 46/69/2 47/70/2 48/71/2
f 46/69/2 49/63/2 50/56/2 47/70/2
f 51/72/2 52/8/2 49/63/2 46/69/2
f 53/73/2 51/72/2 46/69/2 45/68/2
f 52/8/2 71/7/2 70/64/2 49/63/2
f 61/74/2 67/75/2 66/42/2 59/41/2
f 7/76/4 40/32/4 13/23/4 6/25/4
f 55/77/2 56/78/2 51/72/2 53/73/2
f 56/78/2 54/5/2 52/8/2 51/72/2
f 41/79/2 43/62/2 54/5/2 56/78/2
f 42/80/2 41/79/2 56/78/2 55/77/2
f 57/81/2 58/82/2 1/83/2 2/84/2
f 58/82/2 59/41/2 3/44/2 1/83/2
f 60/85/2 61/74/2 59/41/2 58/82/2
f 62/86/2 60/85/2 58/82/2 57/81/2
f 7/87/1 6/2/1 3/1/1 8/88/1
f 63/59/2 68/58/2 67/75/2 61/74/2
f 14/24/4 39/33/4 38/65/4 19/30/4
f 48/89/8 18/90/9 22/91/9 45/92/9
f 31/54/4 33/93/4 34/94/4 32/55/4
f 64/95/2 65/96/2 60/85/2 62/86/2
f 65/96/2 63/59/2 61/74/2 60/85/2
f 47/70/2 50/56/2 63/59/2 65/96/2
f 48/71/2 47/70/2 65/96/2 64/95/2
f 37/97/3 69/98/3 70/16/3 36/15/3
f 24/99/10 28/100/10 55/101/10 53/102/11
f 69/98/3 37/97/3 38/103/3 68/104/3
f 57/105/12 10/106/13 12/107/14 62/108/15
f 30/109/5 29/110/5 41/111/5 42/112/5
f 26/49/4 35/60/4 33/93/4 31/54/4
f 2/113/16 5/114/17 10/106/17 57/105/17
f 39/67/3 67/66/3 68/104/3 38/103/3
f 33/115/3 72/116/3 44/117/3 34/118/3
f 55/101/18 28/100/19 30/119/19 42/120/19
f 1/4/1 4/3/1 5/121/1 2/122/1
f 62/108/20 12/107/21 16/123/22 64/124/23
f 45/92/24 22/91/25 24/99/26 53/102/25
f 16/123/27 18/90/27 48/89/27 64/124/28
f 35/14/29 71/13/30 72/116/29 33/115/30
f 29/110/5 32/34/5 43/37/5 41/111/5
